<svg xmlns="http://www.w3.org/2000/svg" viewBox="0 0 1260 546" width="1260" height="546" font-family="Helvetica Neue, Helvetica, Arial, sans-serif">
<defs><marker id="arr" viewBox="0 0 10 10" refX="9" refY="5" markerWidth="7" markerHeight="7" orient="auto"><path d="M0,0 L10,5 L0,10 z" fill="#5b6472"/></marker></defs>
<rect x="0" y="4" width="118" height="64" rx="8" fill="#EEF2F9" stroke="#C9D3E6"/>
<text x="59.0" y="33.0" text-anchor="middle" font-size="24" font-weight="700" fill="#1F3864">Opener</text>
<text x="59.0" y="55.0" text-anchor="middle" font-size="12.5" fill="#5b6472">09:00 · 20 min</text>
<text x="136" y="30.0" font-size="16" fill="#1f2937">Prediction vs</text>
<text x="136" y="49.0" font-size="16" fill="#1f2937">inference</text>
<rect x="352.0" y="8" width="260.0" height="56" rx="7" fill="#1F3864" stroke="#1F3864" stroke-width="1.6"/>
<text x="482.0" y="33.0" text-anchor="middle" font-size="15" font-weight="700" fill="#ffffff">Mullainathan &amp; Spiess</text>
<text x="482.0" y="52.0" text-anchor="middle" font-size="12.5" fill="#d6def0">2017 · JEP</text>
<rect x="0" y="78" width="118" height="64" rx="8" fill="#EEF2F9" stroke="#C9D3E6"/>
<text x="59.0" y="107.0" text-anchor="middle" font-size="24" font-weight="700" fill="#1F3864">A</text>
<text x="59.0" y="129.0" text-anchor="middle" font-size="12.5" fill="#5b6472">09:20 · 110 min</text>
<text x="136" y="104.0" font-size="16" fill="#1f2937">Factors → ML forecasts</text>
<text x="136" y="123.0" font-size="16" fill="#1f2937">→ who earns the alpha</text>
<rect x="352.0" y="82" width="260.0" height="56" rx="7" fill="#1F3864" stroke="#1F3864" stroke-width="1.6"/>
<text x="482.0" y="107.0" text-anchor="middle" font-size="15" font-weight="700" fill="#ffffff">Fama &amp; French</text>
<text x="482.0" y="126.0" text-anchor="middle" font-size="12.5" fill="#d6def0">2015 · JFE</text>
<rect x="642.0" y="82" width="260.0" height="56" rx="7" fill="#1F3864" stroke="#1F3864" stroke-width="1.6"/>
<text x="772.0" y="107.0" text-anchor="middle" font-size="15" font-weight="700" fill="#ffffff">Gu, Kelly &amp; Xiu</text>
<text x="772.0" y="126.0" text-anchor="middle" font-size="12.5" fill="#d6def0">2020 · RFS</text>
<rect x="932.0" y="82" width="260.0" height="56" rx="7" fill="#FCE9D2" stroke="#C8741A" stroke-width="1.6"/>
<text x="1062.0" y="107.0" text-anchor="middle" font-size="15" font-weight="700" fill="#5a3208">Avramov, Cheng &amp; Metzker</text>
<text x="1062.0" y="126.0" text-anchor="middle" font-size="12.5" fill="#7a4a1c">2023 · MS</text>
<line x1="905.0" y1="110.0" x2="929.0" y2="110.0" stroke="#5b6472" stroke-width="2" marker-end="url(#arr)"/>
<rect x="0" y="152" width="118" height="64" rx="8" fill="#EEF2F9" stroke="#C9D3E6"/>
<text x="59.0" y="181.0" text-anchor="middle" font-size="24" font-weight="700" fill="#1F3864">B</text>
<text x="59.0" y="203.0" text-anchor="middle" font-size="12.5" fill="#5b6472">11:30 · 90 min</text>
<text x="136" y="178.0" font-size="16" fill="#1f2937">Classify → portfolio</text>
<text x="136" y="197.0" font-size="16" fill="#1f2937">→ frictions</text>
<rect x="352.0" y="156" width="260.0" height="56" rx="7" fill="#1F3864" stroke="#1F3864" stroke-width="1.6"/>
<text x="482.0" y="181.0" text-anchor="middle" font-size="15" font-weight="700" fill="#ffffff">Krauss, Do &amp; Huck</text>
<text x="482.0" y="200.0" text-anchor="middle" font-size="12.5" fill="#d6def0">2017 · EJOR</text>
<rect x="0" y="226" width="118" height="64" rx="8" fill="#EEF2F9" stroke="#C9D3E6"/>
<text x="59.0" y="255.0" text-anchor="middle" font-size="24" font-weight="700" fill="#1F3864">C</text>
<text x="59.0" y="277.0" text-anchor="middle" font-size="12.5" fill="#5b6472">13:45 · 60 min</text>
<text x="136" y="252.0" font-size="16" fill="#1f2937">Credit: the benchmark</text>
<text x="136" y="271.0" font-size="16" fill="#1f2937">protocol</text>
<rect x="352.0" y="230" width="203.0" height="56" rx="7" fill="#F3F4F6" stroke="#9CA3AF" stroke-width="1.6" stroke-dasharray="5,4"/>
<text x="453.5" y="255.0" text-anchor="middle" font-size="15" font-weight="700" fill="#374151">Zeng et al.</text>
<text x="453.5" y="274.0" text-anchor="middle" font-size="12.5" fill="#6b7280">2008 · KDD</text>
<rect x="585.0" y="230" width="203.0" height="56" rx="7" fill="#1F3864" stroke="#1F3864" stroke-width="1.6"/>
<text x="686.5" y="255.0" text-anchor="middle" font-size="15" font-weight="700" fill="#ffffff">Lessmann et al.</text>
<text x="686.5" y="274.0" text-anchor="middle" font-size="12.5" fill="#d6def0">2015 · EJOR</text>
<rect x="818.0" y="230" width="203.0" height="56" rx="7" fill="#DDF0EE" stroke="#2E8B82" stroke-width="1.6"/>
<text x="919.5" y="255.0" text-anchor="middle" font-size="15" font-weight="700" fill="#12433f">Gunnarsson et al.</text>
<text x="919.5" y="274.0" text-anchor="middle" font-size="12.5" fill="#2b5f5a">2021 · EJOR</text>
<rect x="1051.0" y="230" width="203.0" height="56" rx="7" fill="#DDF0EE" stroke="#2E8B82" stroke-width="1.6"/>
<text x="1152.5" y="255.0" text-anchor="middle" font-size="15" font-weight="700" fill="#12433f">Fuster et al.</text>
<text x="1152.5" y="274.0" text-anchor="middle" font-size="12.5" fill="#2b5f5a">2022 · JF</text>
<line x1="791.0" y1="258.0" x2="815.0" y2="258.0" stroke="#5b6472" stroke-width="2" marker-end="url(#arr)"/>
<rect x="0" y="300" width="118" height="64" rx="8" fill="#EEF2F9" stroke="#C9D3E6"/>
<text x="59.0" y="329.0" text-anchor="middle" font-size="24" font-weight="700" fill="#1F3864">A+</text>
<text x="59.0" y="351.0" text-anchor="middle" font-size="12.5" fill="#5b6472">14:45 · 30 min</text>
<text x="136" y="326.0" font-size="16" fill="#1f2937">Economics inside</text>
<text x="136" y="345.0" font-size="16" fill="#1f2937">the loss</text>
<rect x="352.0" y="304" width="260.0" height="56" rx="7" fill="#1F3864" stroke="#1F3864" stroke-width="1.6"/>
<text x="482.0" y="329.0" text-anchor="middle" font-size="15" font-weight="700" fill="#ffffff">Chen, Pelger &amp; Zhu</text>
<text x="482.0" y="348.0" text-anchor="middle" font-size="12.5" fill="#d6def0">2024 · MS · builds on GKX</text>
<rect x="0" y="374" width="118" height="64" rx="8" fill="#EEF2F9" stroke="#C9D3E6"/>
<text x="59.0" y="403.0" text-anchor="middle" font-size="24" font-weight="700" fill="#1F3864">D</text>
<text x="59.0" y="425.0" text-anchor="middle" font-size="12.5" fill="#5b6472">15:25 · 40 min</text>
<text x="136" y="400.0" font-size="16" fill="#1f2937">Replication &amp;</text>
<text x="136" y="419.0" font-size="16" fill="#1f2937">robustness</text>
<rect x="352.0" y="378" width="203.0" height="56" rx="7" fill="#1F3864" stroke="#1F3864" stroke-width="1.6"/>
<text x="453.5" y="403.0" text-anchor="middle" font-size="15" font-weight="700" fill="#ffffff">Harvey, Liu &amp; Zhu</text>
<text x="453.5" y="422.0" text-anchor="middle" font-size="12.5" fill="#d6def0">2016 · RFS</text>
<rect x="585.0" y="378" width="203.0" height="56" rx="7" fill="#1F3864" stroke="#1F3864" stroke-width="1.6"/>
<text x="686.5" y="403.0" text-anchor="middle" font-size="15" font-weight="700" fill="#ffffff">Jensen, Kelly &amp; Pedersen</text>
<text x="686.5" y="422.0" text-anchor="middle" font-size="12.5" fill="#d6def0">2023 · JF</text>
<rect x="818.0" y="378" width="203.0" height="56" rx="7" fill="#1F3864" stroke="#1F3864" stroke-width="1.6"/>
<text x="919.5" y="403.0" text-anchor="middle" font-size="15" font-weight="700" fill="#ffffff">Kelly, Malamud &amp; Zhou</text>
<text x="919.5" y="422.0" text-anchor="middle" font-size="12.5" fill="#d6def0">2024 · JF</text>
<rect x="1051.0" y="378" width="203.0" height="56" rx="7" fill="#FCE9D2" stroke="#C8741A" stroke-width="1.6"/>
<text x="1152.5" y="403.0" text-anchor="middle" font-size="15" font-weight="700" fill="#5a3208">Nagel</text>
<text x="1152.5" y="422.0" text-anchor="middle" font-size="12.5" fill="#7a4a1c">2025 · NBER WP</text>
<line x1="1024.0" y1="406.0" x2="1048.0" y2="406.0" stroke="#5b6472" stroke-width="2" marker-end="url(#arr)"/>
<rect x="0" y="448" width="118" height="64" rx="8" fill="#EEF2F9" stroke="#C9D3E6"/>
<text x="59.0" y="477.0" text-anchor="middle" font-size="24" font-weight="700" fill="#1F3864">E</text>
<text x="59.0" y="499.0" text-anchor="middle" font-size="12.5" fill="#5b6472">16:05 · 50 min</text>
<text x="136" y="474.0" font-size="16" fill="#1f2937">Replication from</text>
<text x="136" y="493.0" font-size="16" fill="#1f2937">the author's side</text>
<rect x="352.0" y="452" width="260.0" height="56" rx="7" fill="#1F3864" stroke="#1F3864" stroke-width="1.6"/>
<text x="482.0" y="477.0" text-anchor="middle" font-size="15" font-weight="700" fill="#ffffff">Będowska-Sójka, Wójcik &amp; Pele</text>
<text x="482.0" y="496.0" text-anchor="middle" font-size="12.5" fill="#d6def0">2025 · NAJEF</text>
<rect x="352" y="523" width="22" height="16" rx="4" fill="#1F3864" stroke="#1F3864" stroke-width="1.6"/>
<text x="382" y="536" font-size="14" fill="#1f2937">Core paper of the block</text>
<rect x="590.8" y="523" width="22" height="16" rx="4" fill="#FCE9D2" stroke="#C8741A" stroke-width="1.6"/>
<text x="620.8" y="536" font-size="14" fill="#1f2937">Challenges or replicates it (→)</text>
<rect x="890.4" y="523" width="22" height="16" rx="4" fill="#DDF0EE" stroke="#2E8B82" stroke-width="1.6"/>
<text x="920.4" y="536" font-size="14" fill="#1f2937">Extends or updates it</text>
<rect x="1114.0" y="523" width="22" height="16" rx="4" fill="#F3F4F6" stroke="#9CA3AF" stroke-width="1.6" stroke-dasharray="5,4"/>
<text x="1144.0" y="536" font-size="14" fill="#1f2937">Exercise only</text>
<text x="0" y="536" font-size="14" fill="#5b6472">15 papers · 7 blocks</text>
</svg>